<?xml version="1.0" standalone="no"?>
<!DOCTYPE svg PUBLIC "-//W3C//DTD SVG 20010904//EN"
 "http://www.w3.org/TR/2001/REC-SVG-20010904/DTD/svg10.dtd">
<svg version="1.0" xmlns="http://www.w3.org/2000/svg"
 width="700.000000pt" height="700.000000pt" viewBox="0 0 700.000000 700.000000"
 preserveAspectRatio="xMidYMid meet">
<metadata>
Created by potrace 1.11, written by Peter Selinger 2001-2013
</metadata>
<g transform="translate(0.000000,700.000000) scale(0.100000,-0.100000)"
fill="#000000" stroke="none">
<path d="M3357 6984 c-1 -1 -63 -5 -137 -9 -74 -4 -146 -8 -160 -10 -14 -1
-50 -6 -80 -9 -49 -6 -105 -15 -197 -32 -16 -3 -51 -12 -80 -20 -29 -8 -64
-17 -79 -20 -50 -9 -348 -112 -454 -157 -434 -183 -812 -438 -1140 -767 -80
-80 -154 -157 -165 -171 -11 -13 -41 -49 -66 -79 -76 -90 -202 -268 -274 -385
-244 -396 -426 -883 -475 -1275 -7 -52 -14 -102 -15 -110 -16 -86 -23 -494
-11 -690 7 -117 9 -142 27 -285 6 -44 13 -98 15 -120 3 -22 9 -53 14 -70 5
-16 14 -57 20 -90 17 -85 74 -270 125 -405 375 -990 1202 -1784 2188 -2099 92
-29 312 -88 367 -98 14 -2 50 -10 80 -18 187 -46 230 -50 485 -50 220 0 389 7
520 21 22 2 65 6 95 9 30 3 66 7 80 10 14 2 48 7 75 11 28 3 61 8 75 10 14 3
48 9 75 13 74 13 296 79 410 121 508 189 918 451 1295 829 80 80 157 160 170
176 14 17 45 55 70 85 122 147 253 341 357 531 60 109 84 158 163 334 76 168
191 559 205 695 3 26 12 89 21 154 15 97 27 319 27 501 0 159 -10 383 -19 428
-2 10 -6 45 -9 76 -8 71 -11 90 -29 182 -23 111 -23 115 -52 213 -14 50 -27
98 -29 106 -3 13 -51 146 -90 250 -114 303 -354 704 -586 979 -100 119 -343
355 -469 457 -112 90 -321 240 -360 257 -8 4 -44 25 -80 48 -83 52 -295 159
-430 216 -185 79 -494 176 -645 202 -33 6 -71 13 -85 16 -13 3 -54 7 -90 11
-36 3 -67 8 -70 9 -13 8 -575 25 -583 19z m1322 -1502 c94 -49 116 -104 107
-266 -3 -59 -8 -112 -11 -115 -2 -4 -7 -30 -10 -57 -28 -213 -189 -766 -370
-1269 -52 -147 -155 -451 -155 -461 0 -14 62 7 162 55 338 163 583 373 616
528 12 54 3 85 -47 153 -17 24 -31 55 -31 70 0 55 96 108 206 114 185 9 344
-108 343 -254 0 -40 -4 -68 -25 -159 -11 -50 -64 -148 -101 -186 -98 -102
-286 -228 -470 -316 -213 -101 -287 -145 -298 -179 -21 -66 138 -366 259 -485
78 -78 132 -100 241 -100 50 0 104 4 120 8 17 4 53 10 82 14 48 5 51 4 55 -18
16 -106 -75 -233 -213 -296 -108 -50 -278 -70 -374 -44 -163 44 -364 297 -511
646 -24 56 -49 101 -57 103 -20 4 -68 -80 -195 -340 -110 -224 -147 -289 -200
-356 -67 -84 -121 -96 -212 -46 -104 57 -124 114 -84 239 14 43 134 333 196
475 11 25 24 54 29 65 40 92 225 584 233 620 2 6 32 102 69 215 57 177 160
530 172 587 2 10 17 72 34 138 28 114 67 280 77 335 3 14 10 45 15 70 16 67
15 64 49 220 17 80 34 159 36 175 3 17 12 47 21 67 32 76 147 99 242 50z
m-1994 -1263 c64 -15 132 -49 223 -112 82 -57 67 -60 162 31 107 101 233 119
321 45 16 -14 36 -37 43 -52 27 -53 27 -54 -279 -756 -7 -16 -20 -46 -28 -65
-24 -56 -77 -189 -102 -260 -73 -204 -89 -348 -47 -427 30 -57 50 -66 136 -59
39 3 108 8 152 12 45 3 84 2 87 -3 6 -10 -22 -94 -55 -159 -50 -101 -173 -188
-303 -214 -159 -33 -318 44 -380 184 -26 59 -36 127 -36 252 -1 72 -3 85 -12
70 -133 -214 -297 -402 -387 -443 -109 -50 -140 -56 -280 -57 -131 -1 -137 0
-201 31 -80 37 -127 85 -174 176 -182 355 -74 903 263 1330 258 326 649 534
897 476z"/>
<path d="M2544 3958 c-127 -43 -291 -181 -388 -326 -113 -171 -240 -479 -263
-637 -2 -16 -6 -37 -9 -45 -11 -32 -18 -130 -17 -226 2 -150 39 -220 122 -231
150 -20 408 264 615 678 136 270 203 456 213 586 4 61 2 79 -17 118 -42 87
-146 120 -256 83z"/>
</g>
</svg>
